PathFileType	4	(X/Y/Z)	Patient4_TMGait_0pt7_01_left_01.trc.trc
DataRate	CameraRate	NumFrames	NumMarkers	Units	OrigDataRate	OrigDataStartFrame	OrigNumFrames
86.956521739130	86.956521739130	5	33	mm	86.956521739130	89	       141
Frame#	Time	Sacral			L.Shoulder			Chest			R.Shoulder			Neck			R.ASIS			L.ASIS			R.Thigh.Superior			R.Thigh.Lateral			R.Thigh.Inferior			R.Patella			L.Thigh.Superior			L.Thigh.Lateral			L.Thigh.Inferior			L.Patella			L.Shank.Superior			L.Shank.Lateral			L.Shank.Inferior			R.Shank.Superior			R.Shank.Lateral			R.Shank.Inferior			R.Heel			R.Midfoot.Superior			R.Midfoot.Lateral			R.Toe			L.Heel			L.Midfoot.Lateral			L.Midfoot.Superior			L.Toe			L.Elbow			L.Wrist			R.Elbow			R.Wrist			
		X1	Y1	Z1	X2	Y2	Z2	X3	Y3	Z3	X4	Y4	Z4	X5	Y5	Z5	X6	Y6	Z6	X7	Y7	Z7	X8	Y8	Z8	X9	Y9	Z9	X10	Y10	Z10	X11	Y11	Z11	X12	Y12	Z12	X13	Y13	Z13	X14	Y14	Z14	X15	Y15	Z15	X16	Y16	Z16	X17	Y17	Z17	X18	Y18	Z18	X19	Y19	Z19	X20	Y20	Z20	X21	Y21	Z21	X22	Y22	Z22	X23	Y23	Z23	X24	Y24	Z24	X25	Y25	Z25	X26	Y26	Z26	X27	Y27	Z27	X28	Y28	Z28	X29	Y29	Z29	X30	Y30	Z30	X31	Y31	Z31	X32	Y32	Z32	X33	Y33	Z33	

89	2.142000000000	738.524522776104	996.028359114431	557.029703116695	925.877058375904	1416.591652126687	363.699750687121	1025.706901886011	1348.840601750394	529.755615805086	940.251165895582	1435.396875190821	697.409357733137	929.087501831531	1482.908387343323	517.104533830920	967.085520504922	934.653992071775	673.101592567625	951.150075855610	953.198411008521	398.327521012784	1033.852945528632	750.410673995743	646.041785476240	967.420211852645	630.984822208573	704.629936136125	1054.816750534756	590.407723419404	627.363071729402	1068.855919405541	500.196417951777	634.957035886866	987.273352855129	735.694299216492	417.661523354012	894.318749988730	623.904344601354	354.030682021752	980.328085211850	536.389692126434	406.866824552357	970.559863382955	451.331603077012	402.333862219943	902.099296300657	394.433380829103	399.757307077404	759.986048274863	348.712206465355	358.089849670924	752.319249007810	220.295494844444	415.325942350530	1042.597546602303	408.659270457336	641.643564670424	972.876026589841	301.708868006453	700.550955116957	1022.629564916743	209.150816014599	639.716801417527	896.562378334952	42.361798588954	600.211119678570	1064.260308132697	98.728687293335	647.120335180171	974.447460595722	36.418734269682	680.385656671680	1182.534431333385	49.116665915796	683.970613132161	565.954395264321	142.920076190963	461.186469098637	624.618995963075	101.166167152727	380.406055304863	727.983697124022	121.251331763301	397.800557752822	815.672605399081	32.047883185995	370.705932832805	883.103593061839	1071.795533870053	249.626133678020	1114.251044790458	1152.561281635117	222.746332729761	837.961896215958	1111.141585764744	833.404670234461	869.957684005117	852.558882721339	853.686094239915	
90	2.153500000000	737.681816662584	997.303282158191	559.902219612512	924.991248969465	1417.591709468049	365.999844302860	1025.643950729377	1349.452621817156	531.462513243166	941.411080029298	1436.191651976833	699.602668206100	929.271034614147	1483.798652077370	519.440633294673	966.299600385373	935.901059010748	675.156052324416	949.602216995194	953.651178701417	400.385092027485	1030.786807435953	749.613517268075	649.193691781875	962.405086827465	631.260047617883	706.941085643217	1049.413619740844	589.736136728232	629.745097783174	1062.198380358641	499.552207887737	637.139278421139	990.894186284135	738.756598526420	419.619768707901	902.446931846937	624.839399925203	354.558243038782	990.899257901018	539.132100517208	407.368451667893	982.284092227060	452.989145796113	402.282320372200	912.212977285619	396.116758352174	399.787388644979	768.598008511629	355.127954074725	358.122711705164	756.768515023731	227.058316011364	415.236188828269	1035.536755535234	408.293449452351	643.562665002344	965.288310493946	301.401369698432	701.941913113330	1014.859593279839	208.935320232356	640.759527509557	888.541006864133	42.311446283118	600.418591440380	1056.282040176470	98.692838130994	647.486116102982	966.429643277762	36.381389619080	680.759803023634	1174.559923195619	48.893754829220	684.159986758887	567.654539323837	158.448220116916	461.128102668629	624.136281575420	113.134941939086	380.467340137021	728.721590143798	127.685762957682	397.674480354505	810.948111691397	31.863194557115	370.932629734981	876.080085220808	1072.702333299529	254.337870498385	1111.095354487397	1141.843815852745	225.537354818908	846.161013805605	1109.717554439518	837.072007086417	889.195440387294	852.512265937429	855.433248963212	
91	2.165000000000	736.658563859152	998.538149669417	562.555652916243	923.986693357107	1418.507655443289	368.161872306701	1025.472720994268	1349.950996365666	533.006024074427	942.539623300726	1436.879568902093	701.677698263301	929.383401526435	1484.623319699443	521.623914393775	965.326474316947	937.078413155265	677.104514485198	947.951417864475	954.033374567816	402.293219518759	1027.484939301256	748.850390993472	652.177719704524	957.240457938834	631.558167804327	709.175248258441	1043.869822615437	589.093815680045	632.080117320560	1055.366097738746	498.952485827882	639.310895223703	994.300241876595	742.127710664475	421.461080291249	910.360109174641	626.239653731983	354.940557032677	1001.136926842247	542.453894645758	407.788339539698	993.871092257034	455.304236118819	402.243792760437	922.438906866307	398.304602998964	399.827133863862	777.583968671670	361.594435446728	358.169901552903	761.990331925625	233.973772856271	415.297417277419	1028.354160979774	407.975483688950	645.435220534773	957.616201242082	301.139468400015	703.300022532736	1007.031729789199	208.760822240144	641.785376795134	880.480694809629	42.292577645515	600.623535948715	1048.302836419396	98.604151517023	647.873953294305	958.377831233910	36.360600700640	681.141378085763	1166.552251694805	48.602867536997	684.353024175122	570.660035688410	173.308236890697	461.183655333779	625.138649066795	124.971694488821	380.636378605715	730.626089091339	134.511088613951	397.807594946293	807.841714866484	32.270884043131	371.318067962630	869.072329216298	1073.625209627354	258.928157232836	1107.562636404654	1130.410659676955	228.662821432329	854.657472716681	1108.325542059818	840.664956574777	908.946043091799	853.032433660946	856.991976974767	
92	2.176500000000	735.459937629626	999.733950908103	564.976034672657	922.879512843260	1419.355631759930	370.182365875107	1025.188809230032	1350.352298142598	534.391306404538	943.605018741314	1437.468480474632	703.628814110719	929.431173022345	1485.390753540953	523.651791984470	964.191800874930	938.194313059726	678.961170811552	946.221118294727	954.379874060033	404.071738397299	1023.996694579836	748.149731115656	654.962965991322	951.974951079313	631.880436778921	711.296384374076	1038.238895297629	588.485975492835	634.332739626245	1048.420139615441	498.404104783306	641.413481903040	997.413934609121	745.777295352487	423.200635403073	917.902867722479	628.110891387806	355.213022166831	1010.895517968079	546.338112240932	408.117178675689	1005.183874752911	458.269651870667	402.159548083993	932.657141071417	400.982190842211	399.847573089443	786.811957194969	367.937256982117	358.232301130533	768.002883089586	240.805880958327	415.489362544120	1021.109580422126	407.708813757639	647.222423061745	949.893593623357	300.940628787677	704.585558597792	999.176130051713	208.628513214409	642.775108406406	872.388599370453	42.304713093480	600.828431964550	1040.319194181857	98.482191595942	648.266278003992	950.299156582715	36.357838962371	681.518905619257	1158.515829771709	48.267595778528	684.549548494694	574.979073522771	186.909889728786	461.355764812401	627.747876716260	136.147416190641	380.917363335466	733.840600223306	141.435273519501	398.166148071425	806.736431053280	33.368172593277	371.859415472283	862.127402900398	1074.584110510929	263.351579145639	1103.601758509393	1118.316343659717	232.133407703328	863.481018535383	1106.955227956811	844.122077870294	929.107165864834	854.130707597671	858.320274761992	
93	2.188000000000	734.101092222309	1000.899779773361	567.164887532042	921.689639029011	1420.162607020521	372.065310664299	1024.793819791087	1350.683514503391	535.629943926294	944.579438294487	1437.977592152827	705.452976112595	929.419733751245	1486.115552855007	525.530973442660	962.922715892634	939.257206811033	680.736222952042	944.429438834489	954.733459786902	405.744676952979	1020.359353019287	747.523489799057	657.533395030178	946.630213873709	632.224896288367	713.272854501007	1032.545708260648	587.911142319129	636.471152037696	1041.392923666165	497.909891998697	643.392789302497	1000.181649408575	749.666537104878	424.856062926681	924.959168740893	630.435705656090	355.406086239137	1020.073971060882	550.746232081691	408.339817485308	1016.114046499919	461.859312003197	401.974808645341	942.782353531430	404.112520439767	399.815216936785	796.183601889135	373.968194086931	358.294980788644	774.845130804898	247.305050959381	415.773925457018	1013.836631614630	407.494772055980	648.888772073298	942.137205370869	300.814881474347	705.762800500169	991.310862825255	208.538692982358	643.709707996240	864.273343078831	42.345080902287	601.032845510370	1032.326980451863	98.344656959696	648.644153076790	942.201964694565	36.371031812342	681.877109731646	1150.456750291929	47.912609344099	684.746439130595	580.617880719766	198.717776126448	461.639048020756	632.057824379681	146.156781874491	381.298264674431	738.504841782962	148.133705246491	398.688071464047	807.974738970821	35.167177345487	372.512639470876	855.293172160774	1075.609753983873	267.569101396760	1099.168947201461	1105.620380934289	235.947378536169	872.647922239445	1105.619074160401	847.381647815686	949.576999631886	855.826770389919	859.375818581381	
